<svg xmlns="http://www.w3.org/2000/svg" viewBox="0 0 500 400" width="100%" height="100%">
  <defs>
    <radialGradient id="floorShadow" cx="50%" cy="50%" r="50%">
      <stop offset="0%" stop-color="#000000" stop-opacity="0.25"/>
      <stop offset="100%" stop-color="#000000" stop-opacity="0"/>
    </radialGradient>
    <filter id="softShadow" x="-10%" y="-10%" width="120%" height="120%">
      <feDropShadow dx="0" dy="8" stdDeviation="6" flood-color="#0f172a" flood-opacity="0.15"/>
    </filter>
  </defs>
  
  <!-- Studio Background -->
  <rect width="100%" height="100%" fill="#f8fafc" rx="16"/>
  <circle cx="250" cy="200" r="180" fill="#f1f5f9" opacity="0.6"/>
  
  <!-- Floor Shadow -->
  <ellipse cx="250" cy="315" rx="150" ry="18" fill="url(#floorShadow)"/>
  
  <g filter="url(#softShadow)">
          <defs>
        <linearGradient id="brushWood" x1="0%" y1="0%" x2="100%" y2="0%">
          <stop offset="0%" stop-color="#d97706"/>
          <stop offset="100%" stop-color="#b45309"/>
        </linearGradient>
        <linearGradient id="tinMetal" x1="0%" y1="0%" x2="100%" y2="100%">
          <stop offset="0%" stop-color="#e2e8f0"/>
          <stop offset="50%" stop-color="#94a3b8"/>
          <stop offset="100%" stop-color="#475569"/>
        </linearGradient>
      </defs>
      <path d="M 120 280 Q 200 240, 280 270 Q 340 300, 380 280 L 360 320 Q 300 320, 250 330 Q 150 340, 120 280 Z" fill="#fb7185" opacity="0.4"/>
      <g transform="translate(160, 160) rotate(-15)">
        <rect x="10" y="35" width="130" height="25" fill="#1e293b" rx="4"/>
        <rect x="0" y="10" width="150" height="25" fill="url(#brushWood)" rx="8" stroke="#78350f" stroke-width="2"/>
        <path d="M 15 15 H 135" stroke="#fef08a" stroke-width="1.5" opacity="0.3"/>
      </g>
      <g transform="translate(260, 220)">
        <circle cx="42" cy="42" r="42" fill="#000000" opacity="0.1" transform="translate(3, 5)"/>
        <circle cx="40" cy="40" r="40" fill="url(#tinMetal)" stroke="#334155" stroke-width="2"/>
        <circle cx="40" cy="40" r="32" fill="#0f172a"/>
        <circle cx="40" cy="40" r="28" fill="#d97706" opacity="0.9"/>
        <text x="40" y="45" font-family="sans-serif" font-size="10" font-weight="bold" fill="#ffffff" text-anchor="middle">WAX</text>
      </g>
  </g>
</svg>
