<svg xmlns="http://www.w3.org/2000/svg" viewBox="0 0 500 400" width="100%" height="100%">
  <defs>
    <radialGradient id="floorShadow" cx="50%" cy="50%" r="50%">
      <stop offset="0%" stop-color="#000000" stop-opacity="0.25"/>
      <stop offset="100%" stop-color="#000000" stop-opacity="0"/>
    </radialGradient>
    <filter id="softShadow" x="-10%" y="-10%" width="120%" height="120%">
      <feDropShadow dx="0" dy="8" stdDeviation="6" flood-color="#0f172a" flood-opacity="0.15"/>
    </filter>
  </defs>
  
  <!-- Studio Background -->
  <rect width="100%" height="100%" fill="#f8fafc" rx="16"/>
  <circle cx="250" cy="200" r="180" fill="#f1f5f9" opacity="0.6"/>
  
  <!-- Floor Shadow -->
  <ellipse cx="250" cy="315" rx="150" ry="18" fill="url(#floorShadow)"/>
  
  <g filter="url(#softShadow)">
          <defs>
        <linearGradient id="beltLeather" x1="0%" y1="0%" x2="100%" y2="100%">
          <stop offset="0%" stop-color="#78350f"/>
          <stop offset="100%" stop-color="#451a03"/>
        </linearGradient>
        <linearGradient id="shinyGold" x1="0%" y1="0%" x2="100%" y2="100%">
          <stop offset="0%" stop-color="#fbbf24"/>
          <stop offset="50%" stop-color="#f59e0b"/>
          <stop offset="100%" stop-color="#b45309"/>
        </linearGradient>
      </defs>
      <circle cx="230" cy="220" r="80" fill="none" stroke="url(#beltLeather)" stroke-width="24"/>
      <circle cx="230" cy="220" r="60" fill="none" stroke="url(#beltLeather)" stroke-width="20" opacity="0.8"/>
      <circle cx="230" cy="220" r="88" fill="none" stroke="#a16207" stroke-width="1.5" stroke-dasharray="4 6"/>
      <circle cx="230" cy="220" r="72" fill="none" stroke="#a16207" stroke-width="1.5" stroke-dasharray="4 6"/>
      <path d="M 230 140 C 280 140, 330 180, 330 230 L 354 230 C 354 160, 290 116, 230 116 Z" fill="url(#beltLeather)"/>
      <path d="M 330 230 L 330 260 L 342 275 L 354 260 L 354 230 Z" fill="url(#beltLeather)"/>
      <g transform="translate(180, 110)">
        <rect x="0" y="0" width="60" height="50" rx="8" fill="none" stroke="url(#shinyGold)" stroke-width="10"/>
        <rect x="25" y="-5" width="10" height="60" fill="url(#shinyGold)" rx="2"/>
        <path d="M 30 25 L 55 25" stroke="#451a03" stroke-width="5" stroke-linecap="round"/>
      </g>
  </g>
</svg>
