<svg xmlns="http://www.w3.org/2000/svg" viewBox="0 0 500 400" width="100%" height="100%">
  <defs>
    <radialGradient id="floorShadow" cx="50%" cy="50%" r="50%">
      <stop offset="0%" stop-color="#000000" stop-opacity="0.25"/>
      <stop offset="100%" stop-color="#000000" stop-opacity="0"/>
    </radialGradient>
    <filter id="softShadow" x="-10%" y="-10%" width="120%" height="120%">
      <feDropShadow dx="0" dy="8" stdDeviation="6" flood-color="#0f172a" flood-opacity="0.15"/>
    </filter>
  </defs>
  
  <!-- Studio Background -->
  <rect width="100%" height="100%" fill="#f8fafc" rx="16"/>
  <circle cx="250" cy="200" r="180" fill="#f1f5f9" opacity="0.6"/>
  
  <!-- Floor Shadow -->
  <ellipse cx="250" cy="315" rx="150" ry="18" fill="url(#floorShadow)"/>
  
  <g filter="url(#softShadow)">
        <defs>
      <linearGradient id="heelsGrad2" x1="0%" y1="0%" x2="100%" y2="100%">
        <stop offset="0%" stop-color="#1e293b"/>
        <stop offset="70%" stop-color="#020617"/>
        <stop offset="100%" stop-color="#000000"/>
      </linearGradient>
      <linearGradient id="innerGrad2" x1="0%" y1="0%" x2="0%" y2="100%">
        <stop offset="0%" stop-color="#f1f5f9"/>
        <stop offset="100%" stop-color="#94a3b8"/>
      </linearGradient>
    </defs>
    <path d="M 140 220 L 125 310 L 132 310 L 152 220 Z" fill="url(#heelsGrad2)"/>
    <rect x="123" y="308" width="10" height="4" fill="#1e293b" rx="1"/>
    <path d="M 135 210 C 165 210, 195 240, 230 265 C 260 285, 300 295, 345 295 C 365 295, 375 285, 380 275 C 370 295, 335 305, 300 305 C 260 305, 210 295, 175 260 C 145 230, 138 215, 135 210 Z" fill="url(#heelsGrad2)"/>
    <path d="M 137 210 C 160 210, 190 235, 225 260 C 255 280, 290 290, 330 290 L 325 295 C 285 295, 250 285, 220 265 C 185 240, 155 215, 137 210 Z" fill="url(#innerGrad2)"/>
    <path d="M 310 270 C 335 270, 368 280, 380 290 C 370 302, 330 306, 310 300 C 295 295, 295 275, 310 270 Z" fill="url(#heelsGrad2)"/>
    <path d="M 330 275 Q 360 280, 372 288" fill="none" stroke="#ffffff" stroke-width="2" stroke-linecap="round" opacity="0.15"/>
  </g>
</svg>
