<svg xmlns="http://www.w3.org/2000/svg" viewBox="0 0 500 400" width="100%" height="100%">
  <defs>
    <radialGradient id="floorShadow" cx="50%" cy="50%" r="50%">
      <stop offset="0%" stop-color="#000000" stop-opacity="0.25"/>
      <stop offset="100%" stop-color="#000000" stop-opacity="0"/>
    </radialGradient>
    <filter id="softShadow" x="-10%" y="-10%" width="120%" height="120%">
      <feDropShadow dx="0" dy="8" stdDeviation="6" flood-color="#0f172a" flood-opacity="0.15"/>
    </filter>
  </defs>
  
  <!-- Studio Background -->
  <rect width="100%" height="100%" fill="#f8fafc" rx="16"/>
  <circle cx="250" cy="200" r="180" fill="#f1f5f9" opacity="0.6"/>
  
  <!-- Floor Shadow -->
  <ellipse cx="250" cy="315" rx="150" ry="18" fill="url(#floorShadow)"/>
  
  <g filter="url(#softShadow)">
        <defs>
      <linearGradient id="leatherGrad2" x1="0%" y1="0%" x2="100%" y2="100%">
        <stop offset="0%" stop-color="#78350f"/>
        <stop offset="70%" stop-color="#451a03"/>
        <stop offset="100%" stop-color="#1c0a00"/>
      </linearGradient>
      <linearGradient id="soleWood2" x1="0%" y1="0%" x2="100%" y2="0%">
        <stop offset="0%" stop-color="#b45309"/>
        <stop offset="100%" stop-color="#78350f"/>
      </linearGradient>
    </defs>
    <path d="M 125 270 L 125 300 L 155 300 L 160 270 Z" fill="url(#soleWood2)"/>
    <path d="M 120 270 C 150 270, 220 275, 270 285 C 310 293, 350 288, 380 270 L 385 278 C 350 298, 310 300, 270 292 C 220 282, 150 276, 120 276 Z" fill="url(#soleWood2)"/>
    <path d="M 115 250 C 112 210, 130 170, 185 160 C 200 155, 220 170, 235 190 C 255 210, 310 225, 355 225 C 380 225, 388 238, 388 250 C 388 268, 370 275, 345 272 C 290 268, 130 268, 115 250 Z" fill="url(#leatherGrad2)"/>
    <path d="M 185 160 C 170 170, 160 190, 165 205" fill="none" stroke="#f1f5f9" stroke-width="1.5" opacity="0.3"/>
    <path d="M 200 178 L 220 188 M 195 188 L 215 198 M 190 198 L 210 208" stroke="#1e293b" stroke-width="3" stroke-linecap="round"/>
    <path d="M 205 170 Q 215 150, 200 145 M 205 170 Q 225 155, 230 140" fill="none" stroke="#1e293b" stroke-width="2.5" stroke-linecap="round"/>
    <path d="M 330 230 Q 365 232, 378 245" fill="none" stroke="#ffffff" stroke-width="3" stroke-linecap="round" opacity="0.25"/>
    <path d="M 205 170 Q 235 190, 245 235" fill="none" stroke="#451a03" stroke-width="2"/>
  </g>
</svg>
